<svg width="20" height="20" viewBox="0 0 20 20" fill="none" xmlns="http://www.w3.org/2000/svg">
<path d="M15 15.7166H14.3667C13.7 15.7166 13.0667 15.975 12.6 16.4416L11.175 17.85C10.525 18.4917 9.46667 18.4917 8.81667 17.85L7.39166 16.4416C6.925 15.975 6.28333 15.7166 5.625 15.7166H5C3.61667 15.7166 2.5 14.6083 2.5 13.2417V4.14996C2.5 2.7833 3.61667 1.67499 5 1.67499H15C16.3833 1.67499 17.5 2.7833 17.5 4.14996V13.2417C17.5 14.6 16.3833 15.7166 15 15.7166Z" stroke="#525252" stroke-width="1.25" stroke-miterlimit="10" stroke-linecap="round" stroke-linejoin="round"/>
<path d="M5.83301 7.63336C5.83301 6.85836 6.46634 6.22498 7.24134 6.22498C8.01634 6.22498 8.64968 6.85836 8.64968 7.63336C8.64968 9.20003 6.42467 9.36669 5.933 10.8584C5.833 11.1667 6.09134 11.475 6.41634 11.475H8.64968" stroke="#525252" stroke-width="1.25" stroke-linecap="round" stroke-linejoin="round"/>
<path d="M13.3665 11.4667V6.70838C13.3665 6.49171 13.2248 6.3 13.0165 6.24166C12.8081 6.18333 12.5831 6.26666 12.4665 6.45C11.8665 7.41666 11.2165 8.51667 10.6498 9.48334C10.5581 9.64167 10.5581 9.85001 10.6498 10.0083C10.7415 10.1667 10.9165 10.2666 11.1081 10.2666H14.1665" stroke="#525252" stroke-width="1.25" stroke-linecap="round" stroke-linejoin="round"/>
</svg>
